# xmcd CD database file
#
# Track frame offsets:
#	183
#	8775
#	36940
#	63060
#	88625
#	118713
#	138525
#	178265
#	196640
#	212403
#	236948
#	267735
#
# Disc length: 3960 seconds
#
# Revision: 3
# Processed by: cddbd v1.5.2PL0 Copyright (c) Steve Scherf et al.
# Submitted via: CDex 1.51
#
DISCID=aa0f760c
DTITLE=Big Daddy Kinsey - I Am The Blues
DYEAR=1993
DGENRE=Blues
TTITLE0=Ode To Muddy Waters
TTITLE1=I Am The Blues
TTITLE2=Baby, Don't Say That No More
TTITLE3=Somebody's Gonna Get Hooked Today
TTITLE4=Nine Below Zero
TTITLE5=Walking Thru The Park
TTITLE6=Good Mornin' Mississipi
TTITLE7=Don't You Lie To Me
TTITLE8=The Queen Without A King
TTITLE9=Mannish Boy
TTITLE10=Little Red Rooster
TTITLE11=Got My Mojo Workin'
EXTD=YEAR: 1993
EXTT0=
EXTT1=
EXTT2=
EXTT3=
EXTT4=
EXTT5=
EXTT6=
EXTT7=
EXTT8=
EXTT9=
EXTT10=
EXTT11=
PLAYORDER=
